<?xml version="1.0" encoding="UTF-8"?>
<!DOCTYPE svg PUBLIC "-//W3C//DTD SVG 1.1//EN" "http://www.w3.org/Graphics/SVG/1.1/DTD/svg11.dtd">
<!-- Creator: CorelDRAW 2017 -->
<svg xmlns="http://www.w3.org/2000/svg" xml:space="preserve" width="14.4713mm" height="19.953mm" version="1.1" style="shape-rendering:geometricPrecision; text-rendering:geometricPrecision; image-rendering:optimizeQuality; fill-rule:evenodd; clip-rule:evenodd"
viewBox="0 0 1447 1995"
 xmlns:xlink="http://www.w3.org/1999/xlink">
 <defs>
  <style type="text/css">
   <![CDATA[
    .fil3 {fill:black}
    .fil4 {fill:#891F13}
    .fil2 {fill:#979797}
    .fil0 {fill:#AE3121}
    .fil1 {fill:#C2C3C3}
    .fil5 {fill:red;fill-rule:nonzero}
   ]]>
  </style>
 </defs>
 <g id="Capa_x0020_1">
  <metadata id="CorelCorpID_0Corel-Layer"/>
  <g id="_2618589850000">
   <path class="fil0" d="M894 946c0,109 136,85 136,15 0,-113 -136,-99 -136,-15z"/>
   <path class="fil1" d="M333 817c0,39 33,76 68,76 60,0 92,-67 55,-115 -44,-58 -123,-7 -123,40z"/>
   <path class="fil2" d="M735 378c0,119 136,83 136,8 0,-84 -136,-96 -136,-8z"/>
   <path class="fil2" d="M636 400c93,0 78,-134 0,-134 -78,0 -93,134 0,134z"/>
   <path class="fil1" d="M379 991c0,34 31,68 61,68 37,0 68,-31 68,-68 0,-87 -129,-87 -129,0z"/>
   <path class="fil0" d="M1023 832c0,87 129,87 129,0 0,-34 -31,-68 -61,-68 -37,0 -68,31 -68,68z"/>
   <path class="fil1" d="M462 1113c0,56 61,84 103,50 35,-28 32,-111 -42,-111 -37,0 -61,24 -61,61z"/>
   <path class="fil0" d="M1091 696c0,94 121,88 121,0 0,-81 -121,-81 -121,0z"/>
   <path class="fil2" d="M432 340c0,98 121,84 121,8 0,-87 -121,-88 -121,-8z"/>
   <path class="fil0" d="M1099 544c0,83 121,72 121,0 0,-46 -67,-85 -104,-44 -7,8 -17,32 -17,44z"/>
   <path class="fil2" d="M295 408c0,105 121,71 121,8 0,-42 -72,-94 -111,-28 -1,2 -10,20 -10,21z"/>
   <path class="fil1" d="M652 1256c32,0 61,-23 61,-53 0,-53 -55,-86 -97,-52 -40,33 -23,105 36,105z"/>
   <path class="fil2" d="M182 506c0,70 114,79 114,0 0,-88 -114,-65 -114,0z"/>
   <path class="fil0" d="M1083 400c0,81 114,56 114,8 0,-95 -114,-85 -114,-8z"/>
   <path class="fil1" d="M788 1309c78,0 70,-114 0,-114 -69,0 -78,114 0,114z"/>
   <path class="fil3" d="M811 612c0,76 114,63 114,8 0,-93 -114,-79 -114,-8z"/>
   <path class="fil2" d="M508 643c0,93 114,72 114,8 0,-72 -114,-71 -114,-8z"/>
   <path class="fil4" d="M682 885c0,32 11,68 53,68 66,0 86,-114 -8,-114 -18,0 -45,27 -45,45z"/>
   <path class="fil1" d="M924 1325c23,0 53,-28 53,-45 0,-54 -50,-88 -89,-52 -43,39 -12,97 36,97z"/>
   <path class="fil2" d="M106 612c0,74 106,89 106,-8 0,-54 -106,-63 -106,8z"/>
   <path class="fil4" d="M818 825c0,32 23,61 53,61 26,0 53,-27 53,-53 0,-81 -106,-70 -106,-8z"/>
   <path class="fil0" d="M1030 272c0,68 106,78 106,0 0,-80 -106,-63 -106,0z"/>
   <path class="fil3" d="M689 522c0,81 106,70 106,8 0,-84 -106,-69 -106,-8z"/>
   <path class="fil2" d="M500 794c0,95 106,65 106,15 0,-88 -106,-68 -106,-15z"/>
   <path class="fil0" d="M947 165c0,49 47,77 85,47 34,-27 21,-93 -32,-93 -31,0 -53,16 -53,45z"/>
   <path class="fil1" d="M1000 1234c0,117 157,44 87,-26 -35,-35 -87,-6 -87,26z"/>
   <path class="fil2" d="M76 703c-31,132 91,104 91,38 0,-24 -15,-41 -35,-48 -21,-7 -39,2 -56,11z"/>
   <path class="fil4" d="M902 711c0,62 97,77 103,5 5,-62 -103,-73 -103,-5z"/>
   <path class="fil2" d="M561 931c0,69 98,79 98,-8 0,-49 -98,-57 -98,8z"/>
   <path class="fil3" d="M553 506c0,75 98,68 98,8 0,-76 -98,-64 -98,-8z"/>
   <path class="fil2" d="M61 878c0,25 28,36 45,45 2,0 53,-4 53,-61 0,-49 -98,-69 -98,15z"/>
   <path class="fil1" d="M1114 1181c0,75 98,68 98,8 0,-81 -98,-56 -98,-8z"/>
   <path class="fil2" d="M652 1037c0,52 98,66 98,0 0,-73 -98,-72 -98,0z"/>
   <path class="fil0" d="M886 150c73,0 73,-98 0,-98 -56,0 -55,98 0,98z"/>
   <path class="fil3" d="M424 537c0,86 105,53 98,0 -7,-56 -98,-60 -98,0z"/>
   <path class="fil4" d="M947 575c0,91 91,67 95,13 5,-62 -95,-69 -95,-13z"/>
   <path class="fil2" d="M182 991c0,-24 -21,-45 -45,-45 -48,0 -67,53 -36,82 31,28 82,6 82,-36z"/>
   <path class="fil0" d="M742 21c-21,43 -16,48 8,83l53 0c57,-85 -15,-101 -61,-83z"/>
   <path class="fil1" d="M1214 1084l-2 44c31,27 19,23 68,23 27,-31 23,-19 23,-68 -31,-27 -19,-23 -68,-23l-21 24z"/>
   <path class="fil2" d="M765 1090l0 30c46,31 45,31 91,0 0,-66 -4,-54 -45,-76 -17,9 -45,20 -45,45z"/>
   <path class="fil4" d="M947 446l8 45c16,8 31,16 48,10 53,-17 42,-94 -10,-94 -19,0 -45,16 -45,38z"/>
   <path class="fil3" d="M318 597c0,73 91,73 91,0 0,-51 -91,-51 -91,0z"/>
   <path class="fil2" d="M136 1105c0,60 91,60 91,0 0,-60 -91,-60 -91,0z"/>
   <path class="fil0" d="M614 21l0 45c31,27 19,23 68,23 19,-29 34,-39 9,-70 -28,-35 -50,-17 -78,2z"/>
   <path class="fil4" d="M902 355c0,70 139,61 68,-45 -31,0 -68,4 -68,45z"/>
   <path class="fil2" d="M909 1150l45 -8 8 -61c-6,-4 -32,-23 -38,-23 -57,0 -67,91 -15,91z"/>
   <path class="fil1" d="M1280 1006c39,74 61,42 91,23l0 -45c-29,-20 -52,-51 -91,23z"/>
   <path class="fil3" d="M258 688c0,72 83,72 83,0 0,-50 -83,-50 -83,0z"/>
   <path class="fil4" d="M833 272c0,22 43,90 91,0 -46,-88 -91,-26 -91,0z"/>
   <path class="fil2" d="M985 1067c0,65 9,69 76,53 3,-14 26,-76 -38,-76 -18,0 -23,12 -38,23z"/>
   <path class="fil1" d="M1333 893c0,18 15,34 23,45l45 0c22,-32 26,-38 8,-76l-53 -8c-4,6 -23,32 -23,38z"/>
   <path class="fil3" d="M220 794c0,47 83,81 83,-8 0,-43 -83,-39 -83,8z"/>
   <path class="fil0" d="M500 37c0,59 1,61 61,61 4,-6 23,-32 23,-38 0,-24 -21,-45 -45,-45 -18,0 -23,12 -38,23z"/>
   <path class="fil2" d="M205 1203c19,36 10,27 45,45 36,-19 27,-10 45,-45 -33,-62 -58,-62 -91,0z"/>
   <path class="fil3" d="M220 893l0 30c0,0 58,57 78,-12 6,-20 -7,-33 -17,-49 -24,0 -61,-5 -61,30z"/>
   <path class="fil4" d="M750 211c0,46 36,45 61,45 31,-46 30,-39 0,-83 -25,0 -61,3 -61,38z"/>
   <path class="fil2" d="M1076 1029c0,38 28,53 38,53 18,0 34,-15 45,-23 0,-99 -83,-52 -83,-30z"/>
   <path class="fil3" d="M235 999c0,77 117,39 73,-20 -16,-21 -36,-22 -55,-8 -7,5 -18,22 -18,27z"/>
   <path class="fil2" d="M288 1272c0,18 15,34 23,45 77,0 60,-40 53,-68 -60,-29 -76,16 -76,23z"/>
   <path class="fil1" d="M1371 756l-8 53c15,10 21,14 38,23 17,-9 23,-13 38,-23 0,-33 5,-81 -68,-53z"/>
   <path class="fil0" d="M402 59c-7,31 -17,23 8,68l45 0c10,-15 14,-21 23,-38 -9,-17 -13,-23 -23,-38l-53 8z"/>
   <path class="fil2" d="M1152 984c76,87 118,-54 39,-49 -33,2 -33,23 -39,49z"/>
   <path class="fil4" d="M659 173c0,71 76,49 76,15 0,-20 -4,-21 -8,-38 -9,-2 -68,-25 -68,23z"/>
   <path class="fil0" d="M303 135l0 30c28,15 37,25 65,-3l10 -12c-5,-23 -12,-29 -23,-45 -20,0 -53,-4 -53,30z"/>
   <path class="fil1" d="M1371 673c0,64 76,53 76,0 0,-27 -76,-52 -76,0z"/>
   <path class="fil4" d="M561 165c0,28 19,35 38,45 17,-9 23,-13 38,-23 0,-54 -6,-53 -61,-53 -2,3 -15,29 -15,30z"/>
   <path class="fil2" d="M1212 893c9,17 13,23 23,38 62,0 58,-16 45,-68 -41,-10 -41,-21 -68,30z"/>
   <path class="fil2" d="M386 1332c0,20 4,21 8,38l15 0c0,23 33,0 53,-23 -5,-23 -12,-29 -23,-45 -20,0 -53,-4 -53,30z"/>
   <path class="fil1" d="M1364 538c-6,22 -28,52 38,67 1,-1 4,-5 4,-3 1,1 3,-3 4,-4 17,-21 15,-20 15,-53 -34,-18 -35,-21 -60,-6z"/>
   <path class="fil0" d="M212 211c18,34 4,20 38,38 34,-18 20,-4 38,-38 -18,-34 -4,-20 -38,-38 -34,18 -20,4 -38,38z"/>
   <path class="fil2" d="M1258 802c0,52 68,52 68,0 0,-41 -68,-41 -68,0z"/>
   <path class="fil3" d="M280 1090l26 42c1,1 3,2 4,3l45 -30c-5,-23 -12,-29 -23,-45 -20,0 -53,-4 -53,30z"/>
   <path class="fil3" d="M333 1166c15,62 61,62 76,0l-38 -30 -38 30z"/>
   <path class="fil2" d="M492 1363c0,82 68,60 68,15l-22 -31c-1,-1 -3,-3 -4,-4 -1,-1 -3,-2 -4,-4 -17,9 -23,13 -38,23z"/>
   <path class="fil4" d="M470 173l30 45c50,-26 41,-24 30,-68 -4,-1 -61,-25 -61,23z"/>
   <path class="fil3" d="M402 1241c0,6 24,30 30,30 17,0 9,-3 30,-8 9,-39 21,-61 -45,-61 -5,10 -15,25 -15,38z"/>
   <path class="fil2" d="M591 1400c0,17 3,9 8,30 62,15 66,1 53,-53 -20,-5 -14,-8 -30,-8 -6,0 -30,24 -30,30z"/>
   <path class="fil2" d="M1280 696c0,66 33,67 68,30 -13,-57 -34,-51 -68,-30z"/>
   <path class="fil1" d="M1326 468c1,1 3,2 3,4 3,13 65,67 65,-27 -45,-24 -44,-22 -68,23z"/>
   <path class="fil0" d="M144 287c0,41 68,41 68,0 0,-41 -68,-41 -68,0z"/>
   <path class="fil3" d="M477 1279c43,82 68,11 68,0 0,-14 -28,-25 -38,-30l-30 30z"/>
   <path class="fil4" d="M311 241c0,37 17,38 45,38 8,-16 37,-61 -23,-61 -17,0 -23,5 -23,23z"/>
   <path class="fil2" d="M1288 620c0,55 61,44 61,8 0,-35 -61,-45 -61,-8z"/>
   <path class="fil4" d="M386 203l30 38c4,-3 15,-7 20,-11 2,-1 6,-6 8,-7 1,-1 3,-3 4,-4l7 -8c-40,-75 -68,-23 -68,-8z"/>
   <path class="fil0" d="M90 362c21,39 12,34 61,23l0 -45 -45 -8 -16 30z"/>
   <path class="fil1" d="M1296 363c0,40 -4,45 30,45 13,0 65,-26 0,-61l-30 16z"/>
   <path class="fil3" d="M568 1317c0,25 45,60 61,-8 -45,-47 -61,-8 -61,8z"/>
   <path class="fil2" d="M689 1416c0,13 26,65 61,0 -34,-65 -61,-13 -61,0z"/>
   <path class="fil2" d="M1273 529c0,25 14,29 30,38 86,-46 -30,-84 -30,-38z"/>
   <path class="fil4" d="M233 300c36,67 62,14 62,2 0,-24 -14,-21 -30,-30l-32 29z"/>
   <path class="fil0" d="M61 431c0,40 53,39 53,0 0,-40 -53,-39 -53,0z"/>
   <path class="fil1" d="M1258 317c0,29 53,40 53,-8 0,-27 -19,-23 -45,-23 -5,20 -8,14 -8,30z"/>
   <path class="fil3" d="M652 1340c0,24 14,21 30,30 30,-26 23,-8 23,-30 0,-40 -53,-39 -53,0z"/>
   <path class="fil4" d="M182 362c0,44 53,44 53,0 0,-32 -53,-32 -53,0z"/>
   <path class="fil0" d="M30 506c0,24 14,21 30,30 12,-11 56,-27 -8,-61 -30,26 -23,7 -23,30z"/>
   <path class="fil2" d="M1250 453l29 32 34 -30c-10,-18 -14,-32 -40,-32 -12,0 -18,21 -23,30z"/>
   <path class="fil2" d="M849 1400c0,40 53,39 53,0 0,-32 -53,-32 -53,0z"/>
   <path class="fil0" d="M8 590c26,30 7,23 30,23 50,0 12,-107 -30,-23z"/>
   <path class="fil1" d="M1152 188c0,43 53,32 53,8 0,-43 -53,-32 -53,-8z"/>
   <path class="fil3" d="M727 1347c0,27 19,23 45,23 6,-24 13,-26 -15,-53 -17,9 -30,7 -30,30z"/>
   <path class="fil2" d="M765 1408c0,17 3,9 8,30l53 -23c-9,-17 -7,-30 -30,-30 -15,0 -30,14 -30,23z"/>
   <path class="fil2" d="M924 1370c7,31 7,31 38,38 41,-62 -12,-63 -38,-38z"/>
   <path class="fil1" d="M1212 249c0,20 11,22 23,30l32 -29 -30 -34c-13,10 -24,12 -24,32z"/>
   <path class="fil4" d="M136 438c64,45 61,-38 30,-38 -24,0 -26,19 -30,38z"/>
   <path class="fil2" d="M1220 378c30,57 53,26 53,8 0,-17 -6,-17 -15,-30 -14,3 -13,1 -22,8l-15 15z"/>
   <path class="fil0" d="M0 665c0,32 45,32 45,0 0,-32 -45,-32 -45,0z"/>
   <path class="fil1" d="M1091 135c0,42 76,46 30,-23 -10,5 -30,10 -30,23z"/>
   <path class="fil2" d="M1000 1347l11 19c1,1 3,3 4,4l8 7c20,-11 56,-21 8,-53l-30 23z"/>
   <path class="fil2" d="M1190 340c17,0 38,2 38,-15 0,-20 -11,-22 -23,-30 -30,20 -23,12 -15,45z"/>
   <path class="fil3" d="M811 1340c0,26 15,23 30,23 16,-29 11,-45 -23,-45 -5,9 -8,8 -8,23z"/>
   <path class="fil4" d="M114 499c0,26 15,23 30,23 16,-29 11,-45 -23,-45 -5,9 -8,8 -8,23z"/>
   <path class="fil1" d="M1061 128c12,0 23,-5 23,-15 0,-17 -13,-32 -26,-26 -25,12 -10,41 4,41z"/>
   <path class="fil0" d="M0 726c0,26 15,23 30,23 10,-20 7,-8 8,-38 -17,0 -38,-2 -38,15z"/>
   <path class="fil2" d="M1060 1332c48,23 64,-25 9,-30l-9 30z"/>
   <path class="fil5" d="M407 1838l-64 0c-22,0 -32,-9 -32,-28 0,-7 1,-13 3,-19 2,-5 4,-9 5,-11l113 0c26,0 39,12 39,36l0 170c-3,1 -8,2 -16,2 -8,1 -17,2 -28,3 -11,1 -23,2 -36,3 -13,1 -27,1 -41,1 -32,0 -61,-4 -88,-12 -27,-8 -50,-20 -69,-36 -19,-16 -34,-36 -45,-60 -11,-24 -16,-52 -16,-84 0,-30 5,-57 16,-81 11,-24 25,-44 44,-61 19,-17 41,-30 66,-39 25,-9 53,-13 82,-13 15,0 28,1 41,3 12,2 23,4 32,7 9,3 17,5 23,8 6,3 11,6 15,8 7,4 11,9 15,14 3,5 5,10 5,15 0,5 -1,9 -3,13 -2,4 -4,8 -7,11 -3,3 -6,6 -8,9 -3,2 -5,4 -8,6 -4,-4 -9,-8 -16,-12 -6,-4 -14,-8 -23,-12 -9,-3 -19,-6 -30,-9 -11,-2 -23,-3 -36,-3 -20,0 -39,3 -56,9 -17,6 -31,15 -44,27 -12,12 -22,26 -29,43 -7,17 -10,36 -10,57 0,24 4,44 11,61 7,17 18,31 31,42 14,11 29,19 48,24 18,5 39,8 62,8 14,0 25,0 35,-1 10,-1 16,-1 19,-2l0 -97z"/>
   <path id="1" class="fil5" d="M541 1986c0,-9 1,-23 2,-40 1,-18 2,-37 3,-59 1,-22 3,-44 4,-68 1,-23 3,-46 4,-68 1,-22 2,-41 4,-58 1,-17 2,-31 3,-40 1,-13 5,-22 13,-27 8,-5 17,-8 27,-8 11,0 21,2 28,5 7,3 12,6 15,9 4,9 11,22 20,39 9,18 19,37 29,57 10,21 21,41 31,61 10,20 19,37 26,50 6,-12 14,-27 23,-45 9,-18 19,-36 28,-55 9,-18 18,-36 26,-52 8,-16 15,-29 19,-38 5,-10 11,-18 19,-24 8,-5 18,-8 30,-8 11,0 20,1 27,4 7,3 12,5 14,7 1,10 2,24 3,43 1,19 2,40 4,63 1,23 3,47 4,72 1,25 3,49 4,72 1,23 3,44 4,63 1,19 2,33 2,43l-64 0c0,-6 -1,-16 -2,-30 -1,-14 -2,-30 -3,-49 -1,-19 -2,-38 -3,-59 -1,-21 -2,-40 -3,-58 -1,-18 -2,-35 -3,-49 -1,-14 -2,-24 -2,-29 -3,6 -8,15 -13,26 -5,11 -11,22 -18,35 -6,13 -13,26 -20,40 -7,14 -14,27 -20,40 -6,13 -12,24 -18,35 -5,11 -10,20 -13,26l-54 0c-4,-10 -11,-23 -19,-40 -8,-17 -17,-35 -27,-54 -10,-19 -19,-38 -29,-57 -10,-19 -18,-35 -26,-49 0,9 -1,20 -2,34 -1,14 -2,30 -3,48 -1,18 -2,36 -3,54 -1,19 -2,37 -3,54 -1,18 -2,33 -2,48 -1,14 -1,26 -2,34l-65 0z"/>
   <path id="2" class="fil5" d="M1138 1676l-109 0c-22,0 -32,-10 -32,-29 0,-7 1,-13 3,-19 2,-6 4,-9 5,-11l313 0c22,0 32,10 32,29 0,7 -1,13 -3,19 -2,6 -4,9 -5,11l-138 0 0 310 -65 0 0 -310z"/>
  </g>
 </g>
</svg>
